<svg width="32" height="32" viewBox="0 0 32 32" fill="none" xmlns="http://www.w3.org/2000/svg">
<g clip-path="url(#clip0_92_157)">
<path d="M29.6663 0.333344H2.33301C1.22844 0.333344 0.333008 1.22878 0.333008 2.33334V29.6667C0.333008 30.7712 1.22844 31.6667 2.33301 31.6667H29.6663C30.7709 31.6667 31.6663 30.7712 31.6663 29.6667V2.33334C31.6663 1.22877 30.7709 0.333344 29.6663 0.333344Z" fill="#101419"/>
<path d="M24.1336 8L10.6003 24H7.93359L21.3336 8H24.1336Z" fill="white"/>
<path d="M12.3337 8.73334L23.4003 23.2667H19.8003L8.66699 8.73334H12.3337Z" fill="black"/>
<path d="M24.8669 24H19.4669L7.2002 8H12.7335L24.8669 24ZM20.2002 22.5333H21.9335L12.0002 9.46667H10.2002L20.2002 22.5333Z" fill="white"/>
</g>
<defs>
<clipPath id="clip0_92_157">
<rect width="32" height="32" rx="2" fill="white"/>
</clipPath>
</defs>
</svg>
